HIERARCHY
ROOT Hips
{
    OFFSET   0.000000   0.000000   0.000000
    CHANNELS 6 Xposition Yposition Zposition Zrotation Xrotation Yrotation
    JOINT Chest
    {
        OFFSET   0.000000   8.007230   0.000000
        CHANNELS 3 Zrotation Xrotation Yrotation
        JOINT Chest2
        {
            OFFSET   0.000000  22.077100   0.000000
            CHANNELS 3 Zrotation Xrotation Yrotation
            JOINT Neck
            {
                OFFSET   0.000000  23.255100   0.000000
                CHANNELS 3 Zrotation Xrotation Yrotation
                JOINT Head
                {
                    OFFSET   0.000000  14.370100   1.956600
                    CHANNELS 3 Zrotation Xrotation Yrotation
                    End Site
                    {
                        OFFSET   0.000000  19.566000   0.000000
                    }
                }
            }
            JOINT LeftCollar
            {
                OFFSET   3.911900  19.017000  -0.467063
                CHANNELS 3 Zrotation Xrotation Yrotation
                JOINT LeftShoulder
                {
                    OFFSET  10.383700   0.000000   0.000000
                    CHANNELS 3 Zrotation Xrotation Yrotation
                    JOINT LeftElbow
                    {
                        OFFSET  26.662100   0.001193   0.000980
                        CHANNELS 3 Zrotation Xrotation Yrotation
                        JOINT LeftWrist
                        {
                            OFFSET  28.869000  -0.000059  -0.000082
                            CHANNELS 3 Zrotation Xrotation Yrotation
                            JOINT LeftFinger0
                            {
                                OFFSET   2.044650  -2.323450   3.252850
                                CHANNELS 3 Zrotation Xrotation Yrotation
                                JOINT LeftFinger01
                                {
                                    OFFSET   3.088130   0.000000   0.000000
                                    CHANNELS 3 Zrotation Xrotation Yrotation
                                    JOINT LeftFinger02
                                    {
                                        OFFSET   2.639460   0.000000   0.000000
                                        CHANNELS 3 Zrotation Xrotation Yrotation
                                        End Site
                                        {
                                            OFFSET   2.582190   0.000000   0.000000
                                        }
                                    }
                                }
                            }
                            JOINT LeftFinger1
                            {
                                OFFSET   8.364480   0.000000   3.252850
                                CHANNELS 3 Zrotation Xrotation Yrotation
                                JOINT LeftFinger11
                                {
                                    OFFSET   4.646930   0.000000   0.000000
                                    CHANNELS 3 Zrotation Xrotation Yrotation
                                    JOINT LeftFinger12
                                    {
                                        OFFSET   2.323470   0.000000   0.000000
                                        CHANNELS 3 Zrotation Xrotation Yrotation
                                        End Site
                                        {
                                            OFFSET   2.273050   0.000000   0.000000
                                        }
                                    }
                                }
                            }
                            JOINT LeftFinger2
                            {
                                OFFSET   8.364490   0.000016   1.078090
                                CHANNELS 3 Zrotation Xrotation Yrotation
                                JOINT LeftFinger21
                                {
                                    OFFSET   5.111610   0.000000   0.000000
                                    CHANNELS 3 Zrotation Xrotation Yrotation
                                    JOINT LeftFinger22
                                    {
                                        OFFSET   2.788150   0.000016   0.000000
                                        CHANNELS 3 Zrotation Xrotation Yrotation
                                        End Site
                                        {
                                            OFFSET   2.727660   0.000000   0.000000
                                        }
                                    }
                                }
                            }
                            JOINT LeftFinger3
                            {
                                OFFSET   7.899780   0.000015  -1.078090
                                CHANNELS 3 Zrotation Xrotation Yrotation
                                JOINT LeftFinger31
                                {
                                    OFFSET   4.646930   0.000000   0.000000
                                    CHANNELS 3 Zrotation Xrotation Yrotation
                                    JOINT LeftFinger32
                                    {
                                        OFFSET   2.323470   0.000000   0.000000
                                        CHANNELS 3 Zrotation Xrotation Yrotation
                                        End Site
                                        {
                                            OFFSET   2.273050   0.000000   0.000000
                                        }
                                    }
                                }
                            }
                            JOINT LeftFinger4
                            {
                                OFFSET   7.435090   0.000000  -3.252850
                                CHANNELS 3 Zrotation Xrotation Yrotation
                                JOINT LeftFinger41
                                {
                                    OFFSET   3.717550   0.000000   0.000000
                                    CHANNELS 3 Zrotation Xrotation Yrotation
                                    JOINT LeftFinger42
                                    {
                                        OFFSET   1.858770   0.000000   0.000000
                                        CHANNELS 3 Zrotation Xrotation Yrotation
                                        End Site
                                        {
                                            OFFSET   1.818440   0.000000   0.000000
                                        }
                                    }
                                }
                            }
                        }
                    }
                }
            }
            JOINT RightCollar
            {
                OFFSET  -3.911910  19.017000  -0.467062
                CHANNELS 3 Zrotation Xrotation Yrotation
                JOINT RightShoulder
                {
                    OFFSET -10.383700   0.000014   0.000000
                    CHANNELS 3 Zrotation Xrotation Yrotation
                    JOINT RightElbow
                    {
                        OFFSET -26.662100   0.001225   0.001091
                        CHANNELS 3 Zrotation Xrotation Yrotation
                        JOINT RightWrist
                        {
                            OFFSET -28.869000  -0.000020  -0.000085
                            CHANNELS 3 Zrotation Xrotation Yrotation
                            JOINT RightFinger0
                            {
                                OFFSET  -2.044650  -2.323490   3.252850
                                CHANNELS 3 Zrotation Xrotation Yrotation
                                JOINT RightFinger01
                                {
                                    OFFSET  -3.088130   0.000000   0.000000
                                    CHANNELS 3 Zrotation Xrotation Yrotation
                                    JOINT RightFinger02
                                    {
                                        OFFSET  -2.639460   0.000000   0.000000
                                        CHANNELS 3 Zrotation Xrotation Yrotation
                                        End Site
                                        {
                                            OFFSET  -2.582190   0.000000   0.000000
                                        }
                                    }
                                }
                            }
                            JOINT RightFinger1
                            {
                                OFFSET  -8.364480   0.000000   3.252850
                                CHANNELS 3 Zrotation Xrotation Yrotation
                                JOINT RightFinger11
                                {
                                    OFFSET  -4.646930   0.000000   0.000000
                                    CHANNELS 3 Zrotation Xrotation Yrotation
                                    JOINT RightFinger12
                                    {
                                        OFFSET  -2.323470   0.000000   0.000000
                                        CHANNELS 3 Zrotation Xrotation Yrotation
                                        End Site
                                        {
                                            OFFSET  -2.273050   0.000000   0.000000
                                        }
                                    }
                                }
                            }
                            JOINT RightFinger2
                            {
                                OFFSET  -8.364480   0.000000   1.078090
                                CHANNELS 3 Zrotation Xrotation Yrotation
                                JOINT RightFinger21
                                {
                                    OFFSET  -5.111620   0.000000   0.000000
                                    CHANNELS 3 Zrotation Xrotation Yrotation
                                    JOINT RightFinger22
                                    {
                                        OFFSET  -2.788160   0.000000   0.000000
                                        CHANNELS 3 Zrotation Xrotation Yrotation
                                        End Site
                                        {
                                            OFFSET  -2.727660   0.000000   0.000000
                                        }
                                    }
                                }
                            }
                            JOINT RightFinger3
                            {
                                OFFSET  -7.899780   0.000000  -1.078090
                                CHANNELS 3 Zrotation Xrotation Yrotation
                                JOINT RightFinger31
                                {
                                    OFFSET  -4.646930   0.000000   0.000000
                                    CHANNELS 3 Zrotation Xrotation Yrotation
                                    JOINT RightFinger32
                                    {
                                        OFFSET  -2.323470   0.000000   0.000000
                                        CHANNELS 3 Zrotation Xrotation Yrotation
                                        End Site
                                        {
                                            OFFSET  -2.273050   0.000000   0.000000
                                        }
                                    }
                                }
                            }
                            JOINT RightFinger4
                            {
                                OFFSET  -7.435090   0.000000  -3.252850
                                CHANNELS 3 Zrotation Xrotation Yrotation
                                JOINT RightFinger41
                                {
                                    OFFSET  -3.717550   0.000000   0.000000
                                    CHANNELS 3 Zrotation Xrotation Yrotation
                                    JOINT RightFinger42
                                    {
                                        OFFSET  -1.858760   0.000000   0.000000
                                        CHANNELS 3 Zrotation Xrotation Yrotation
                                        End Site
                                        {
                                            OFFSET  -1.818440   0.000000   0.000000
                                        }
                                    }
                                }
                            }
                        }
                    }
                }
            }
        }
    }
    JOINT LeftHip
    {
        OFFSET   9.783030   0.000000   0.000000
        CHANNELS 3 Zrotation Xrotation Yrotation
        JOINT LeftKnee
        {
            OFFSET   0.000063 -41.789100   0.000608
            CHANNELS 3 Zrotation Xrotation Yrotation
            JOINT LeftAnkle
            {
                OFFSET   0.000048 -41.133200  -0.000184
                CHANNELS 3 Zrotation Xrotation Yrotation
                JOINT LeftToe
                {
                    OFFSET   0.000000  -6.358960  14.674500
                    CHANNELS 3 Zrotation Xrotation Yrotation
                    End Site
                    {
                        OFFSET   0.000000   0.000000   3.913200
                    }
                }
            }
        }
    }
    JOINT RightHip
    {
        OFFSET  -9.783030   0.000000   0.000000
        CHANNELS 3 Zrotation Xrotation Yrotation
        JOINT RightKnee
        {
            OFFSET   0.000071 -41.789100   0.001239
            CHANNELS 3 Zrotation Xrotation Yrotation
            JOINT RightAnkle
            {
                OFFSET   0.000037 -41.133200  -0.000166
                CHANNELS 3 Zrotation Xrotation Yrotation
                JOINT RightToe
                {
                    OFFSET   0.000000  -6.358960  14.674500
                    CHANNELS 3 Zrotation Xrotation Yrotation
                    End Site
                    {
                        OFFSET   0.000000   0.000000   3.913200
                    }
                }
            }
        }
    }
}
MOTION
Frames: 5
Frame Time:   0.016667
  0.116876  89.516300   0.781361  -2.611720  -4.941530  -4.347270   1.226760   1.257360   0.522098   2.442890   2.525550   1.017490   0.931797   0.601072  -0.012637   1.531300   1.217930  -1.593550  -2.546880  -0.305917   1.239500 -79.582300  13.382400   4.532060  -2.419190  -9.497820 -10.676900  14.839300 -12.381000   6.011920  38.383800  32.657400 -69.456100 -29.624100  -0.001554   0.006513  -9.812090  -0.001286   0.003077 -23.307700   3.562640  -8.207760 -19.275700  -0.009651  -0.007325 -13.501000  -0.004700  -0.000238 -24.825900   0.321184  -0.694294 -24.827800  -0.011133  -0.010362 -16.535300  -0.005720  -0.008829 -22.937200   0.298126  -0.704505 -22.939000  -0.009183  -0.007112 -15.269700  -0.006181  -0.007331 -23.918900   0.310135  -0.699310 -35.881200  -0.002693  -0.002208 -23.896900  -0.003706  -0.002093   5.647480  -0.115863   2.200840  74.680800   5.315980  -6.686550   0.418743 -10.733500   9.719310 -14.612200  -0.589204  -0.544833 -34.869500  24.964800  61.814000  30.886400   0.004776  -0.002774  10.443200   0.000000   0.000506  28.500900   4.295840   7.854640  23.560400  -0.000848  -0.005335  16.481300  -0.000237  -0.000121  27.611300   3.053220   5.814640  30.593800  -0.013313  -0.002535  20.375400  -0.001344  -0.000349  25.678800   1.617110   3.358980  25.726200  -0.003565  -0.005715  17.133700  -0.002695  -0.000234  32.146000   0.847571   1.356070  48.234100  -0.003243  -0.006384  32.123900  -0.001239  -0.002202   1.202470   8.014670   3.187400   1.375250   0.209025   8.069000  -1.388910  -3.917250   1.852500  -0.000000   0.000000   0.000000   3.167260   7.209490  -5.639390  -0.402921   1.698210  -6.296160  -1.385240  -4.895410  -0.410870  -0.000000   0.000000  -0.000000
  0.108953  89.516300   0.781189  -2.613430  -4.964690  -4.347120   1.226810   1.280750   0.525857   2.442820   2.572400   1.024550   0.925508   0.649145  -0.012541   1.520880   1.315150  -1.551550  -2.538920  -0.300905   1.245990 -79.574000  13.409500   4.523740  -2.443050  -9.527550 -10.682300  14.830700 -12.370300   5.992810  38.389500  32.673000 -69.485000 -29.613000  -0.001566   0.006521  -9.806510  -0.001283   0.003081 -23.304800   3.580100  -8.249040 -19.277200  -0.009651  -0.007320 -13.501000  -0.004704  -0.000225 -24.823200   0.333671  -0.721349 -24.825200  -0.011129  -0.010359 -16.533600  -0.005720  -0.008824 -22.939600   0.309802  -0.731920 -22.941500  -0.009178  -0.007109 -15.274700  -0.006177  -0.007321 -23.913000   0.322159  -0.726568 -35.872600  -0.002683  -0.002198 -23.891100  -0.003708  -0.002084   5.643290  -0.111506   2.191450  74.690400   5.341210  -6.675420   0.433977 -10.732700   9.745050 -14.615500  -0.603931  -0.536392 -34.859300  24.989000  61.824700  30.917800   0.004778  -0.002795  10.458900   0.000000   0.000498  28.492400   4.287690   7.842730  23.552500  -0.000847  -0.005338  16.481300  -0.000240  -0.000120  27.605400   3.047510   5.805300  30.557900  -0.013316  -0.002533  20.351500  -0.001344  -0.000351  25.646000   1.591320   3.310410  25.692500  -0.003567  -0.005719  17.111200  -0.002682  -0.000235  32.123500   0.847520   1.364360  48.200300  -0.003244  -0.006390  32.101400  -0.001237  -0.002201   1.210070   8.056040   3.187740   1.372550   0.182264   8.088450  -1.394310  -3.907890   1.841940   0.000000   0.000000   0.000000   3.164810   7.244640  -5.633760  -0.388977   1.679560  -6.311360  -1.391310  -4.890760  -0.396855  -0.000000   0.000000   0.000000
  0.096114  89.516300   0.780923  -2.616040  -5.002240  -4.345280   1.226660   1.319360   0.531780   2.442000   2.649750   1.035630   0.914040   0.731503  -0.012445   1.501960   1.481870  -1.476360  -2.526640  -0.293277   1.252490 -79.559300  13.453100   4.507740  -2.479040  -9.559410 -10.693200  14.816300 -12.355600   5.959310  38.397400  32.683600 -69.518200 -29.601900  -0.001582   0.006539  -9.800940  -0.001279   0.003091 -23.304200   3.598610  -8.290330 -19.280600  -0.009650  -0.007311 -13.501000  -0.004716  -0.000190 -24.820400   0.346158  -0.748405 -24.822600  -0.011116  -0.010348 -16.531900  -0.005718  -0.008813 -22.945400   0.321478  -0.759334 -22.947500  -0.009168  -0.007104 -15.283000  -0.006165  -0.007296 -23.907100   0.334183  -0.753827 -35.863900  -0.002659  -0.002167 -23.885400  -0.003713  -0.002058   5.637190  -0.107150   2.172970  74.710500   5.395800  -6.656060   0.455605 -10.731500   9.781550 -14.629000  -0.618659  -0.524357 -34.849200  25.013200  61.835400  30.962600   0.004780  -0.002816  10.481300   0.000000   0.000479  28.483800   4.279540   7.830810  23.544700  -0.000845  -0.005349  16.481300  -0.000244  -0.000119  27.599500   3.041790   5.795960  30.522000  -0.013321  -0.002531  20.327600  -0.001343  -0.000352  25.612000   1.565520   3.261850  25.656600  -0.003572  -0.005732  17.087300  -0.002649  -0.000236  32.101000   0.847450   1.372650  48.166500  -0.003245  -0.006405  32.078900  -0.001233  -0.002200   1.223940   8.117600   3.188340   1.367240   0.155504   8.113100  -1.404420  -3.898370   1.823040   0.000000   0.000000  -0.000000   3.161560   7.300860  -5.624990  -0.366701   1.650030  -6.335640  -1.400650  -4.882580  -0.382838  -0.000000   0.000000   0.000000
  0.086659  89.516300   0.780711  -2.617180  -5.030230  -4.335370   1.226100   1.349350   0.535861   2.440430   2.709820   1.043170   0.902671   0.801281  -0.012867   1.483660   1.623570  -1.405350  -2.519580  -0.287829   1.246150 -79.544700  13.478700   4.491210  -2.503930  -9.560500 -10.707600  14.806400 -12.350100   5.928860  38.354400  32.630600 -69.488000 -29.620200  -0.001586   0.006567  -9.810120  -0.001284   0.003105 -23.311200   3.599320  -8.289650 -19.286300  -0.009649  -0.007304 -13.500900  -0.004734  -0.000135 -24.831200   0.336432  -0.727019 -24.833300  -0.011092  -0.010330 -16.539000  -0.005714  -0.008799 -22.956800   0.312449  -0.737645 -22.958800  -0.009153  -0.007099 -15.291000  -0.006147  -0.007261 -23.921500   0.324848  -0.732268 -35.885400  -0.002624  -0.002117 -23.899700  -0.003722  -0.002017   5.633950  -0.113784   2.150610  74.735500   5.470470  -6.634100   0.466178 -10.738400   9.793420 -14.659600  -0.596099  -0.521296 -34.831100  24.979300  61.810900  30.983100   0.004772  -0.002816  10.491600   0.000000   0.000454  28.485000   4.291260   7.851550  23.547000  -0.000847  -0.005370  16.482900  -0.000242  -0.000121  27.599200   3.066400   5.842540  30.534200  -0.013326  -0.002529  20.335700  -0.001341  -0.000351  25.609500   1.574640   3.281980  25.654100  -0.003576  -0.005755  17.085700  -0.002599  -0.000237  32.111900   0.847423   1.368650  48.182800  -0.003245  -0.006426  32.089700  -0.001230  -0.002198   1.238240   8.157050   3.188840   1.363150   0.155913   8.119170  -1.414090  -3.898200   1.805980  -0.000000   0.000000  -0.000000   3.159890   7.340470  -5.617950  -0.350081   1.630200  -6.352880  -1.405260  -4.875090  -0.385955   0.000000   0.000000   0.000000
  0.077549  89.516300   0.780595  -2.617500  -5.056740  -4.317570   1.225060   1.379150   0.539411   2.438150   2.769480   1.049660   0.890385   0.875353  -0.013655   1.463870   1.773940  -1.327980  -2.512320  -0.284995   1.239810 -79.531400  13.514700   4.470680  -2.525070  -9.561560 -10.722700  14.792400 -12.349000   5.896870  38.309400  32.582200 -69.454200 -29.638500  -0.001588   0.006605  -9.819300  -0.001293   0.003123 -23.315900   3.600030  -8.288960 -19.290200  -0.009647  -0.007296 -13.500900  -0.004759  -0.000065 -24.842000   0.326706  -0.705633 -24.844000  -0.011062  -0.010307 -16.546100  -0.005708  -0.008780 -22.964800   0.303419  -0.715955 -22.966700  -0.009133  -0.007092 -15.295800  -0.006123  -0.007215 -23.936000   0.315513  -0.710709 -35.906800  -0.002579  -0.002051 -23.914000  -0.003733  -0.001963   5.632670  -0.130657   2.128180  74.764600   5.550780  -6.620770   0.473026 -10.748500   9.805980 -14.693200  -0.573539  -0.516086 -34.805100  24.932200  61.778400  30.993200   0.004764  -0.002815  10.496600   0.000000   0.000423  28.492200   4.309420   7.881960  23.554800  -0.000848  -0.005398  16.488300  -0.000240  -0.000123  27.601300   3.101520   5.908390  30.565500  -0.013334  -0.002529  20.356600  -0.001338  -0.000351  25.608200   1.584630   3.302110  25.653800  -0.003583  -0.005784  17.085500  -0.002537  -0.000239  32.133600   0.847417   1.360660  48.215300  -0.003244  -0.006452  32.111400  -0.001226  -0.002197   1.252520   8.176300   3.189910   1.361330   0.158789   8.120030  -1.427190  -3.898210   1.785780   0.000000   0.000000   0.000000   3.160910   7.378020  -5.614280  -0.336192   1.611110  -6.368840  -1.409730  -4.867220  -0.391786  -0.000000   0.000000   0.000000
